<?xml version="1.0" standalone="no"?><!DOCTYPE svg PUBLIC "-//W3C//DTD SVG 1.1//EN" "http://www.w3.org/Graphics/SVG/1.1/DTD/svg11.dtd"><svg t="1723993195040" class="icon" viewBox="0 0 1024 1024" version="1.1" xmlns="http://www.w3.org/2000/svg" p-id="10474" xmlns:xlink="http://www.w3.org/1999/xlink" width="16" height="16"><path d="M558.933333 938.666667c-119.466667-21.333333-226.133333-81.066667-307.2-166.4-85.333333-81.066667-145.066667-192-166.4-307.2l226.133334-98.133334 345.6 345.6-98.133334 226.133334z m-256-482.133334l-128 55.466667c12.8 72.533333 76.8 162.133333 132.266667 217.6 55.466667 55.466667 128 93.866667 204.8 110.933333l51.2-123.733333-260.266667-260.266667z m384 170.666667L396.8 337.066667c25.6-17.066667 55.466667-29.866667 85.333333-25.6 46.933333 0 89.6 17.066667 123.733334 42.666666L874.666667 85.333333c8.533333-8.533333 17.066667-12.8 29.866666-12.8 12.8 0 25.6 4.266667 29.866667 12.8 17.066667 17.066667 21.333333 42.666667 4.266667 64l-264.533334 264.533334c51.2 64 55.466667 149.333333 12.8 213.333333z" p-id="10475" fill="#ffffff"></path></svg>