<?xml version="1.0" standalone="no"?><!DOCTYPE svg PUBLIC "-//W3C//DTD SVG 1.1//EN" "http://www.w3.org/Graphics/SVG/1.1/DTD/svg11.dtd"><svg t="1723992170216" class="icon" viewBox="0 0 1024 1024" version="1.1" xmlns="http://www.w3.org/2000/svg" p-id="7023" width="16" height="16" xmlns:xlink="http://www.w3.org/1999/xlink"><path d="M284.448 971.424h455.136c88.736 0 132.864-44.576 132.864-134.144V187.136c0-89.152-44.128-134.56-132.864-134.56H284.448c-88.288 0-132.864 45.408-132.864 134.592v650.144c0 89.568 44.576 134.144 132.864 134.144z m3.392-68.992c-44.128 0-67.296-23.584-67.296-66.432V188.416c0-42.432 23.136-66.88 67.744-66.88h447.84c44.576 0 67.296 24 67.296 66.88v647.584c0 42.848-22.72 66.432-66.88 66.432z m62.176-601.728h324.832c15.008 0 26.56-12 26.56-26.976 0-14.56-11.552-25.696-26.56-25.696H350.016c-15.872 0-27.008 11.136-27.008 25.696 0 15.008 11.168 26.976 27.008 26.976z m0 149.568h324.832c15.008 0 26.56-12 26.56-27.008 0-14.56-11.552-25.696-26.56-25.696H350.016c-15.872 0-27.008 11.168-27.008 25.696 0 15.008 11.168 27.008 27.008 27.008z m0 149.6h153.856c15.008 0 26.56-11.584 26.56-26.144a26.144 26.144 0 0 0-26.56-26.56h-153.888c-15.872 0-27.008 11.584-27.008 26.56 0 14.56 11.168 26.144 27.008 26.144z" p-id="7024" fill="#ffffff"></path></svg>