<?xml version="1.0" standalone="no"?><!DOCTYPE svg PUBLIC "-//W3C//DTD SVG 1.1//EN" "http://www.w3.org/Graphics/SVG/1.1/DTD/svg11.dtd"><svg t="1723992471075" class="icon" viewBox="0 0 1024 1024" version="1.1" xmlns="http://www.w3.org/2000/svg" p-id="9087" xmlns:xlink="http://www.w3.org/1999/xlink" width="16" height="16"><path d="M877.583 591.758V521.78c0-16.448-13.334-29.781-29.781-29.781s-29.78 13.333-29.78 29.78v69.978H772.16a4.243 4.243 0 0 0-3.262 6.956l75.803 91.137a4.243 4.243 0 0 0 6.524 0l75.803-91.137a4.243 4.243 0 0 0-3.262-6.956h-46.184zM931.6 320c33.3 0 60.4 27.1 60.3 60.4v423.1c0 33.3-27 60.4-60.4 60.4H508.4c-33.3 0-60.4-27-60.4-60.4V380.4c0-33.3 27-60.4 60.4-60.4h423.2zM638.913 677.19l38.912-97.152V692h52.597V492h-63.925l-45.222 114.492L575.923 492H512v200h52.598V580l39.048 97.19h35.267z" fill="#ffffff" p-id="9088"></path><path d="M764 952H104V327h220c19.9 0 36-16.1 36-36V72h368v148c0 19.9 16.1 36 36 36s36-16.1 36-36V72c0-39.8-32.2-72-72-72H317.8c-19.1 0-37.4 7.6-50.9 21.1L53.1 234.9A71.983 71.983 0 0 0 32 285.8V952c0 39.8 32.2 72 72 72h660c19.9 0 36-16.1 36-36s-16.1-36-36-36zM288 101.8V255H134.8L288 101.8z" fill="#ffffff" p-id="9089"></path></svg>